<svg xmlns="http://www.w3.org/2000/svg" viewBox="0 0 150 194"><defs><style>.cls-1{fill:#d8d391;}.cls-2{fill:#ff7bac;}.cls-3{fill:#f9e8d8;}.cls-4{fill:#fff;}.cls-5{stroke:#000;stroke-miterlimit:10;}</style></defs><g id="Layer_2" data-name="Layer 2"><g id="Layer_1-2" data-name="Layer 1"><circle class="cls-1" cx="75" cy="75" r="75"/><path class="cls-2" d="M5,194H145V173.9A60.91,60.91,0,0,0,84.1,113H65.9A60.91,60.91,0,0,0,5,173.9Z"/><circle class="cls-3" cx="76" cy="68" r="54"/><path class="cls-4" d="M110.38,71.5c0-6.08-5.38-11-12-11s-12,4.92-12,11Z"/><path class="cls-5" d="M91.62,71.5c0-5.25,3-9.5,6.76-9.5s6.74,4.25,6.74,9.5"/><path class="cls-4" d="M42.37,71.5c0-6.08,5.38-11,12-11s12,4.92,12,11Z"/><path class="cls-5" d="M61.12,71.5c0-5.25-3-9.5-6.74-9.5s-6.76,4.25-6.76,9.5"/><path class="cls-4" d="M104,92.16C104,94.84,91.58,97,76.25,97S48.5,94.84,48.5,92.16s12.85.09,28.18.09S104,89.49,104,92.16Z"/><path class="cls-1" d="M134,64c0-30.93-26.19-56-58.5-56S17,33.07,17,64"/></g></g></svg>