<svg xmlns="http://www.w3.org/2000/svg" viewBox="0 0 140 181"><defs><style>.cls-1{fill:#534741;}.cls-2{fill:#662d91;}.cls-3{fill:#593c75;}.cls-4{fill:#bdb1c8;}.cls-5{fill:#f9e8d8;}.cls-6{fill:#fff;}.cls-7{stroke:#000;stroke-miterlimit:10;}</style></defs><g id="Layer_2" data-name="Layer 2"><g id="Layer_1-2" data-name="Layer 1"><path class="cls-1" d="M130.75,58c0-28.72-27.09-52-60.5-52S9.75,29.28,9.75,58"/><path class="cls-2" d="M0,181H140V160.9A60.91,60.91,0,0,0,79.1,100H60.9A60.91,60.91,0,0,0,0,160.9Z"/><polygon class="cls-3" points="70.42 156.34 48.1 117.67 40 104 69 93 101 104 92.75 117.67 70.42 156.34"/><polygon class="cls-4" points="70.42 142.3 50.42 107.65 30.41 73 70.42 73 110.43 73 90.43 107.65 70.42 142.3"/><circle class="cls-5" cx="70.53" cy="54" r="54"/><path class="cls-6" d="M104.53,58.5c0-16.84-5.37-30.5-12-30.5s-12,13.66-12,30.5Z"/><path class="cls-7" d="M85.78,58.5c0-14.55,3-26.34,6.75-26.34S99.28,44,99.28,58.5"/><path class="cls-6" d="M36.53,58.5c0-16.84,5.37-30.5,12-30.5s12,13.66,12,30.5Z"/><path class="cls-7" d="M55.28,58.5c0-14.55-3-26.34-6.75-26.34S41.78,44,41.78,58.5"/><path class="cls-6" d="M98.28,79.05c0,11.57-12.42,21-27.75,21s-27.75-9.38-27.75-21"/></g></g></svg>