<svg xmlns="http://www.w3.org/2000/svg" viewBox="0 0 150 194"><defs><style>.cls-1{fill:#d4a87f;}.cls-2{fill:#9e005d;}.cls-3{fill:#f9e8d8;}.cls-4{fill:#fff;}.cls-5{stroke:#000;stroke-miterlimit:10;}</style></defs><g id="Layer_2" data-name="Layer 2"><g id="Layer_1-2" data-name="Layer 1"><path class="cls-1" d="M150,75A75,75,0,0,0,0,75"/><path class="cls-2" d="M5,194H145V173.9A60.91,60.91,0,0,0,84.1,113H65.9A60.91,60.91,0,0,0,5,173.9Z"/><circle class="cls-3" cx="76" cy="68" r="54"/><path class="cls-4" d="M110.38,71.5c0-6.08-5.75-15.5-12.38-15.5S86.38,65.42,86.38,71.5Z"/><path class="cls-5" d="M91.62,71.5c0-5.25,3-9.5,6.76-9.5s6.74,4.25,6.74,9.5"/><path class="cls-4" d="M42.37,71.5c0-6.08,5-15.5,11.63-15.5s12.38,9.42,12.37,15.5Z"/><path class="cls-5" d="M61.12,71.5c0-5.25-3-9.5-6.74-9.5s-6.76,4.25-6.76,9.5"/><path class="cls-4" d="M109,85c2,8-4.54,20.78-22,26-13.51,4-23.29-1.49-26-7-3.5-7.12,12.11-2.53,26-5C100.28,96.63,107.07,77.3,109,85Z"/><path class="cls-1" d="M142.8,67.51C95.74,61,60.53,34.48,64.15,8.22A78,78,0,0,1,112,22C135.09,38.15,141.39,61.61,142.8,67.51Z"/><path class="cls-1" d="M2.9,60.51C50,54,85.16,27.48,81.54,1.22A78,78,0,0,0,33.69,15C10.61,31.15,4.3,54.61,2.9,60.51Z"/></g></g></svg>