<svg xmlns="http://www.w3.org/2000/svg" viewBox="0 0 150 194"><defs><style>.cls-1{fill:#534741;}.cls-2{fill:#d4145a;}.cls-3{fill:#f9e8d8;}.cls-4{fill:#fff;}.cls-5{stroke:#000;stroke-miterlimit:10;}</style></defs><g id="Layer_2" data-name="Layer 2"><g id="Layer_1-2" data-name="Layer 1"><circle class="cls-1" cx="75" cy="75" r="75"/><path class="cls-2" d="M5,194H145V173.9A60.91,60.91,0,0,0,84.1,113H65.9A60.91,60.91,0,0,0,5,173.9Z"/><circle class="cls-3" cx="76" cy="68" r="54"/><path class="cls-4" d="M110.38,71.5c0-6.08-5.38-11-12-11s-12,4.92-12,11Z"/><path class="cls-5" d="M91.62,71.5c0-5.25,3-9.5,6.76-9.5s6.74,4.25,6.74,9.5"/><path class="cls-4" d="M42.37,71.5c0-6.08,5.38-11,12-11s12,4.92,12,11Z"/><path class="cls-5" d="M61.12,71.5c0-5.25-3-9.5-6.74-9.5s-6.76,4.25-6.76,9.5"/><path class="cls-4" d="M103,92.05c0,11.57-12.42,21-27.75,21s-27.75-9.38-27.75-21,12.85.38,28.18.38S103,80.47,103,92.05Z"/><path class="cls-1" d="M142.8,67.51C95.74,61,60.53,34.48,64.15,8.22A78,78,0,0,1,112,22C135.09,38.15,141.39,61.61,142.8,67.51Z"/><path class="cls-1" d="M2.9,60.51C50,54,85.16,27.48,81.54,1.22A78,78,0,0,0,33.69,15C10.61,31.15,4.3,54.61,2.9,60.51Z"/></g></g></svg>