<?xml version="1.0" encoding="utf-8"?>
<!-- Generator: Adobe Illustrator 25.0.1, SVG Export Plug-In . SVG Version: 6.00 Build 0)  -->
<svg version="1.1" id="Layer_1" xmlns="http://www.w3.org/2000/svg" xmlns:xlink="http://www.w3.org/1999/xlink" x="0px" y="0px"
	 viewBox="0 0 295.7 227" style="enable-background:new 0 0 295.7 227;" xml:space="preserve">
<style type="text/css">
	.st0{fill:#164C55;}
	.st1{fill:#644F47;}
	.st2{fill:#73553C;}
	.st3{fill:#F2F2F2;stroke:#F2F2F2;stroke-miterlimit:10;}
	.st4{fill:#CCCCCC;}
	.st5{enable-background:new    ;}
	.st6{font-family:'InkFree';}
	.st7{font-size:14.721px;}
	.st8{font-family:'SegoePrint';}
	.st9{font-size:12.1232px;}
	.st10{fill:#D8D391;}
	.st11{fill:#F9E8D8;}
	.st12{fill:#FFFFFF;}
	.st13{stroke:#000000;stroke-miterlimit:10;}
</style>
<g id="Layer_2_1_">
	<g id="Layer_1-2">
		<path class="st0" d="M10,226.8h140v-20.1c0-33.6-27.3-60.9-60.9-60.9H70.9C37.3,145.8,10,173,10,206.7V226.8z"/>
		
			<rect x="70.8" y="147.3" transform="matrix(0.5654 -0.8248 0.8248 0.5654 -55.155 197.7149)" class="st1" width="178.5" height="7.8"/>
		<polygon class="st2" points="256.4,132.6 260.4,132.9 261.8,130.8 257,121 268,121.8 288.1,92.5 286.3,88.9 290.3,89.2 
			295.7,81.4 176.9,0 167,14.4 171.3,22.6 161.6,22.2 158,27.5 160,31.4 155.5,31.2 127.7,71.8 246.5,153.2 258.1,136.2 		"/>
		<polygon class="st3" points="258.6,73.6 190.8,27.1 160.1,71.8 161.4,78.5 232.5,127.2 260.9,85.8 		"/>
		<polyline class="st4" points="259.1,73.3 254,80.7 261.4,85.8 		"/>
		<polyline class="st4" points="159.5,71.8 163.6,74.6 160.8,78.7 		"/>
		<text transform="matrix(0.8248 0.5654 -0.5654 0.8248 189.6131 48.6912)" class="st5"><tspan x="0" y="0" class="st6 st7"> </tspan><tspan x="4.2" y="0" class="st8 st9">KUNSKAP </tspan><tspan x="5.7" y="14.5" class="st8 st9">RÄDDAR </tspan><tspan x="4.9" y="29.1" class="st8 st9">JORDEN! </tspan></text>
		<circle class="st10" cx="17.7" cy="62.5" r="17.7"/>
		<circle class="st11" cx="81" cy="100.8" r="54"/>
		<path class="st12" d="M115.4,104.3c0-6.1-5.4-18.7-12-18.7s-12,12.6-12,18.7H115.4z"/>
		<path class="st13" d="M96.6,104.3c0-5.2,3-9.5,6.8-9.5s6.7,4.2,6.7,9.5"/>
		<path class="st12" d="M47.4,104.6c0-6.1,5.4-24,12-24s12,17.9,12,24H47.4z"/>
		<path class="st13" d="M66.1,104.3c0-5.2-3-9.5-6.7-9.5s-6.8,4.2-6.8,9.5"/>
		<path class="st12" d="M110.4,121.6c0,2.7-13.7,24-29,24s-36.1-31.3-34-33c3.3-2.6,18.3,16.1,32,16
			C94.7,128.5,110.4,118.9,110.4,121.6z"/>
		<path class="st10" d="M131.4,81.6c0-19.3-22.8-35-51-35s-51,15.7-51,35c17.5,0,34.5-18,52-18C97.9,63.6,114.9,81.6,131.4,81.6z"/>
		
			<ellipse transform="matrix(0.1091 -0.994 0.994 0.1091 65.925 198.4577)" class="st10" cx="143.7" cy="62.5" rx="17.7" ry="17.7"/>
	</g>
</g>
</svg>
