<?xml version="1.0" encoding="utf-8"?>
<!-- Generator: Adobe Illustrator 25.0.1, SVG Export Plug-In . SVG Version: 6.00 Build 0)  -->
<svg version="1.1" id="Layer_1" xmlns="http://www.w3.org/2000/svg" xmlns:xlink="http://www.w3.org/1999/xlink" x="0px" y="0px"
	 viewBox="0 0 1080 1080" style="enable-background:new 0 0 1080 1080;" xml:space="preserve">
<style type="text/css">
	.st0{fill:#FFFFFF;stroke:#295A74;stroke-width:6;stroke-miterlimit:10;}
	.st1{fill:none;stroke:#295A74;stroke-width:6;stroke-miterlimit:10;}
</style>
<g>
	<path class="st0" d="M609.6,895"/>
	<path class="st0" d="M586.5,895"/>
	<path class="st0" d="M279,895"/>
	<path class="st1" d="M632.8,895V508.8c0-7.6,6.2-13.8,13.8-13.8h91.3c7.6,0,13.8,6.2,13.8,13.8V895"/>
	<path class="st1" d="M782.2,295c0-25.8-13.1-48.6-32.9-62.1c6.2-8.5,16.9-20.9-1.1-33.9c16,5,28-11.7,28-26
		c0-32.4-24.7-66.6-51.3-70.5c0.2-1.5,0.3-3,0.3-4.5c0-17.7-14.3-32-32-32s-32,14.3-32,32c0,1.5,0.1,3,0.3,4.5
		c-2.1-0.3-4.2-0.5-6.3-0.5c-29.3,0-53,32.2-53,72c0,37.7,21.3,68.6,48.5,71.7c-9.7,11.2-16.2,25.2-18,40.8
		c-3.9,7-6.5,18.9-6.5,32.5c0,21.5,6.5,39,14.5,39c4.3,0,8.1-5,10.8-12.8c1.2,1.3,2.5,2.6,3.8,3.9c0,0.2,0,0.4,0,0.6
		c-10.7,7-18,21.3-18,37.9c0,23.5,14.8,42.5,33,42.5c13.6,0,25.3-10.6,30.3-25.7c2.8,0.5,5.7,0.7,8.7,0.7c29.8,0,54-24.2,54-54
		c0-2-0.1-3.9-0.3-5.8C774.9,331.9,782.2,314.3,782.2,295z"/>
	<path class="st1" d="M431.4,895V608.8c0-7.6,6.2-13.8,13.8-13.8h91.3c7.6,0,13.8,6.2,13.8,13.8V895"/>
	<path class="st1" d="M426,390c0-21.9,8.7-41.2,21.9-52.2c-2.5-7.6-3.9-15.9-3.9-24.8c0-33.7,20.4-61,45.5-61s45.5,27.3,45.5,61
		c0,20.4-10,39-26,46c11,8,12,21.1,12,31c0,8.5,0,17-18,24c25,0,32,31.6,32,55c0,35.3-16.1,64-36,64c-17.9,0-47-37-25-60
		c-11,11-41-13.1-41-30c0-5.1,5-17,22-16C444,428,426,404.6,426,390z"/>
	<path class="st1" d="M230,895V708.8c0-7.6,6.2-13.8,13.8-13.8h91.3c7.6,0,13.8,6.2,13.8,13.8V895"/>
	<path class="st1" d="M337.1,435.5c0-7.4-9-13.7-21.8-16.3c0.5-1.7,0.8-3.4,0.8-5.2c0-11.6-10.7-21-24-21s-24,9.4-24,21
		c0,2.1,0.3,4,1,5.9c-9.9,4-17,13.7-17,25.1c0,14.9,12.1,27,27,27c12.1,0,22.4-8,25.8-19C322.9,452.4,337.1,444.8,337.1,435.5z"/>
	<path class="st1" d="M305.1,530c-9.5,0-17.7,7.9-20.9,19.1c-0.3,0-0.7-0.1-1.1-0.1c-11.9,0-21.5,18.6-21.5,41.5
		c0,22.9,9.6,41.5,21.5,41.5c0.6,0,1.2-0.1,1.8-0.2c1.1,12.8,5,22.2,9.7,22.2c5.5,0,10-13.4,10-30c0-6.3-0.7-12.2-1.8-17
		c1.1-5.1,1.8-10.6,1.8-16.5c0-0.2,0-0.3,0-0.5c0.2,0,0.3,0,0.5,0c12.4,0,22.5-13.4,22.5-30S317.6,530,305.1,530z"/>
</g>
</svg>
