<svg xmlns="http://www.w3.org/2000/svg" width="233.018" height="148.016" viewBox="0 0 233.018 148.016">
  <g id="Group_89" data-name="Group 89" transform="translate(-199.811 -1187.278)">
    <path id="Path_60" data-name="Path 60" d="M1613.881,755.872s.736,1.373,1.841,3.66a41.461,41.461,0,0,1,1.841,4.347c.736,1.83,1.472,3.66,2.209,5.948a64.167,64.167,0,0,1,2.025,7.321,55.231,55.231,0,0,1,1.657,8.465c.368,2.974.92,5.948,1.1,9.151s.368,6.406.368,9.608a126.125,126.125,0,0,1-.552,9.609c-.184,3.2-.736,6.177-1.1,9.151s-1.1,5.719-1.657,8.465c-.552,2.516-1.288,5.033-2.025,7.321a97.4,97.4,0,0,1-4.049,10.295c-1.1,2.288-1.841,3.66-1.841,3.66l1.1-4.118c.736-2.517,1.656-6.406,2.761-10.752.92-4.575,1.841-9.837,2.577-15.557.368-2.745.552-5.948.736-8.922,0-1.6.184-2.974.184-4.575v-4.575c0-2.974,0-6.177-.184-9.151s-.368-5.948-.736-8.922c-.368-2.745-.736-5.719-1.1-8.236s-.92-5.033-1.473-7.321c-.92-4.575-2.025-8.236-2.761-10.752a24.983,24.983,0,0,0-.92-4.118Z" transform="translate(-1323.514 471.212)" fill="#295a74"/>
    <path id="Path_61" data-name="Path 61" d="M1639.685,756.539s.736,1.144,2.025,3.2c.552,1.144,1.288,2.516,2.025,3.889q1.1,2.4,2.209,5.491c.736,2.059,1.472,4.347,2.209,6.634.736,2.516,1.289,5.033,1.841,7.778.184,1.373.552,2.745.736,4.118s.368,2.974.552,4.347c.368,2.974.368,5.948.552,8.922,0,2.974-.184,6.177-.368,9.151-.368,2.974-.736,5.948-1.1,8.693a74.837,74.837,0,0,1-1.841,7.778c-.736,2.516-1.473,4.8-2.209,6.634a49.552,49.552,0,0,1-4.417,9.38c-1.288,2.059-2.025,3.2-2.025,3.2s.368-1.373.92-3.889,1.473-5.948,2.393-10.066c.368-2.059.736-4.347,1.288-6.863.368-2.288.736-5.033.92-7.549.368-2.745.552-5.491.736-8.236s.184-5.49.184-8.465c0-2.745-.184-5.719-.184-8.465-.184-2.745-.368-5.49-.736-8.236s-.552-5.262-1.1-7.549c-.368-2.517-.736-4.576-1.288-6.863a40.839,40.839,0,0,0-1.288-5.719c-.368-1.6-.736-3.2-1.1-4.347a9.454,9.454,0,0,1-.92-2.974Z" transform="translate(-1327.967 471.232)" fill="#295a74"/>
    <path id="Path_62" data-name="Path 62" d="M1672.337,762.536a21.385,21.385,0,0,1,1.656,2.516,56.174,56.174,0,0,1,3.681,7.321,69.34,69.34,0,0,1,3.5,11.439l1.1,6.863c.184,2.288.368,4.8.368,7.092,0,2.516-.184,4.8-.368,7.092s-.552,4.8-.92,6.863a28.8,28.8,0,0,1-1.656,6.177c-.552,1.83-1.288,3.66-1.841,5.262a56.174,56.174,0,0,1-3.681,7.321c-1.1,1.6-1.657,2.516-1.657,2.516s.184-1.144.736-3.2c.368-2.059,1.1-4.8,1.656-8.007.368-1.6.552-3.432.92-5.262a56.808,56.808,0,0,0,.736-5.948c.184-2.059.368-4.118.552-6.406,0-2.059.184-4.347.184-6.634,0-4.347-.368-8.693-.736-12.811-.184-2.059-.552-4.118-.736-5.948-.368-1.83-.552-3.66-.92-5.262s-.552-3.2-.92-4.575-.552-2.517-.736-3.432a15.489,15.489,0,0,1-.92-2.974Z" transform="translate(-1333.562 471.412)" fill="#295a74"/>
    <path id="Path_63" data-name="Path 63" d="M1698.945,764.548l-.184-.229c-.184.229.368-.229.184-.229v.229a7.148,7.148,0,0,0,1.1,1.6q1.38,2.059,3.313,5.49c1.288,2.288,2.761,5.262,4.049,8.236,1.288,3.2,2.577,6.634,3.681,10.295.184.915.552,1.83.736,3.2a3.024,3.024,0,0,0,.184,1.144v1.373l-.184,1.373a20.11,20.11,0,0,1-.736,3.2c-.368.915-.552,1.83-.92,2.745a33.612,33.612,0,0,1-5.154,8.007,58.974,58.974,0,0,1-4.233,4.575c-1.1,1.144-1.656,1.83-1.656,1.83a21.862,21.862,0,0,1,.736-2.516c.552-1.6,1.472-3.66,2.577-6.177a57.892,57.892,0,0,0,3.129-8.007c.184-.686.368-1.373.552-2.288s.184-1.373.368-2.059l.184-1.373v-.458c-.184-.686-.368-1.373-.552-2.288-.92-3.2-2.025-6.863-2.945-10.066s-1.841-6.406-2.393-9.151c-.736-2.745-1.1-5.033-1.472-6.634a12.474,12.474,0,0,0-.368-1.83v-.229s.368-.229.184-.229-.184.229-.184.458Z" transform="translate(-1338.083 471.458)" fill="#295a74"/>
    <path id="Path_64" data-name="Path 64" d="M1511.631,817.426c4.969,2.288,9.939,4.575,14.909,7.092,2.393,1.144,4.97,2.516,7.362,3.66,2.393,1.373,4.97,2.517,7.362,3.889l7.362,3.889c2.393,1.373,4.785,2.516,7.362,3.889l14.541,8.007-7.73,5.262c.184-4.118.368-8.007.552-12.125l.552-12.125c.368-8.007.92-16.243,1.472-24.25s1.1-16.243,1.656-24.25,1.289-16.243,2.209-24.25l9.2,7.778c-2.761,1.6-5.338,3.2-8.1,4.8l-8.1,4.575c-5.522,2.974-11.043,5.948-16.381,9.151-5.522,2.974-11.043,5.948-16.381,9.151-5.522,2.974-10.859,6.177-16.381,9.38l-.552-5.719a91.3,91.3,0,0,0,11.228,2.745c3.681.686,7.546,1.6,11.411,2.059,3.865.686,7.547,1.144,11.412,1.6s7.546.686,11.412.915,7.73.458,11.412.458h11.412c3.865-.229,7.546-.229,11.411-.686,3.865-.229,7.546-.686,11.412-1.144s7.546-.915,11.227-1.6c3.681-.458,7.546-1.144,11.228-1.83s7.362-1.373,11.228-2.288c3.681-.686,7.362-1.83,11.044-2.745,3.681-1.144,7.362-2.059,10.859-3.2,3.681-1.144,7.178-2.516,10.675-3.889,3.5-1.6,6.994-2.974,10.307-4.8,3.5-1.6,6.81-3.66,10.123-5.491l5.154-2.745,3.865,5.262c2.945,4.118,6.074,8.236,9.019,12.354s6.074,8.236,9.019,12.583c2.945,4.118,5.89,8.465,8.835,12.583l8.835,12.811-13.436,6.177c.184-8.693.184-17.387.552-26.309l.736-26.309.92-26.309,1.1-26.309,7.178,4.347c-6.442,5.491-12.884,10.981-19.326,16.243-3.313,2.745-6.442,5.49-9.755,8.007-3.313,2.745-6.626,5.262-9.939,7.778l-.92-1.373c2.761-3.432,5.706-6.863,8.467-10.066,2.761-3.432,5.706-6.634,8.651-9.837,5.706-6.634,11.6-13.04,17.3-19.446l6.626-7.549.552,11.9,1.1,26.309.92,26.309.736,26.309c.184,8.693.368,17.387.552,26.309l.552,25.394-13.8-19.217-9.019-12.354c-2.945-4.118-5.89-8.465-9.019-12.583-2.945-4.118-5.89-8.465-8.835-12.582s-5.89-8.465-8.835-12.811l8.835,2.288c-3.681,1.83-7.362,3.889-11.228,5.491a102.273,102.273,0,0,1-11.411,4.576c-3.865,1.144-7.731,2.517-11.6,3.66a106.393,106.393,0,0,1-11.6,2.745c-3.865.686-7.73,1.6-11.78,2.059a98.65,98.65,0,0,1-11.78,1.373c-3.865.229-7.915.686-11.78.686h-11.78c-3.865-.229-7.73-.229-11.6-.458s-7.73-.458-11.6-.915l-11.6-1.144-11.6-1.373c-3.865-.458-7.731-1.144-11.6-1.6l-11.412-1.83c-3.865-.686-7.73-1.373-11.412-2.059-3.865-.686-7.546-1.373-11.6-2.288l-6.994-1.373,6.258-4.347c5.338-3.66,10.491-7.321,15.645-11.21,5.154-3.66,10.307-7.549,15.461-11.439s10.307-7.778,15.461-11.439l7.73-5.719,7.73-5.49,9.939-6.863-.736,14.642c-.368,8.007-.92,16.243-1.472,24.25s-1.288,16.243-2.025,24.25-1.472,16.243-2.209,24.25l-1.288,12.125c-.368,4.118-.736,8.007-1.288,12.125l-1.1,10.066-6.626-4.575-13.8-9.837c-2.209-1.6-4.6-3.432-6.81-5.033l-6.81-5.033c-2.209-1.6-4.6-3.432-6.81-5.033-2.209-1.83-4.6-3.432-6.81-5.262-4.417-3.432-9.019-7.092-13.436-10.752v-2.288Z" transform="translate(-1304.826 470.054)" fill="#295a74"/>
  </g>
</svg>
