<?xml version="1.0" encoding="utf-8"?>
<!-- Generator: Adobe Illustrator 25.0.1, SVG Export Plug-In . SVG Version: 6.00 Build 0)  -->
<svg version="1.1" id="Layer_1" xmlns="http://www.w3.org/2000/svg" xmlns:xlink="http://www.w3.org/1999/xlink" x="0px" y="0px"
	 viewBox="0 0 1080 1080" style="enable-background:new 0 0 1080 1080;" xml:space="preserve">
<style type="text/css">
	.st0{fill:none;stroke:#295A74;stroke-width:6;stroke-miterlimit:10;}
</style>
<g>
	<g>
		<path class="st0" d="M677,573.4c0,0,19.8-39.1,41.3,0c21.5,39.1,44.2,0,44.2,0"/>
		<path class="st0" d="M762.5,573.4c0,0,19.8-39.1,41.3,0c21.5,39.1,44.2,0,44.2,0"/>
	</g>
	<g>
		<path class="st0" d="M677,608.6c0,0,19.8-39.1,41.3,0c21.5,39.1,44.2,0,44.2,0"/>
		<path class="st0" d="M762.5,608.6c0,0,19.8-39.1,41.3,0c21.5,39.1,44.2,0,44.2,0"/>
	</g>
	<g>
		<path class="st0" d="M677,646c0,0,19.8-39.1,41.3,0c21.5,39.1,44.2,0,44.2,0"/>
		<path class="st0" d="M762.5,646c0,0,19.8-39.1,41.3,0c21.5,39.1,44.2,0,44.2,0"/>
	</g>
	<g>
		<path class="st0" d="M677,683c0,0,19.8-39.1,41.3,0c21.5,39.1,44.2,0,44.2,0"/>
		<path class="st0" d="M762.5,683c0,0,19.8-39.1,41.3,0c21.5,39.1,44.2,0,44.2,0"/>
	</g>
</g>
<g>
	<circle class="st0" cx="459.6" cy="497" r="76"/>
	<line class="st0" x1="555.6" y1="547.8" x2="658.8" y2="609.1"/>
	<line class="st0" x1="266.2" y1="379" x2="369.4" y2="440.3"/>
	<line class="st0" x1="482.6" y1="603.6" x2="513.2" y2="719.6"/>
	<line class="st0" x1="397.2" y1="279.4" x2="427.8" y2="395.5"/>
	<line class="st0" x1="241.9" y1="561.7" x2="358" y2="531.1"/>
	<line class="st0" x1="566.1" y1="476.3" x2="682.1" y2="445.7"/>
	<line class="st0" x1="513.8" y1="403" x2="574.3" y2="299.3"/>
	<line class="st0" x1="344.1" y1="694.1" x2="404.6" y2="590.5"/>
</g>
</svg>
